Simulation
nRows=24
nColumns=15
endheader
time  TH_x TH_y TH_z SC_y  SC_z  SC_x  AC_y  AC_z  AC_x  GH_y  GH_z  GH_yy  EL_x  PS_y
2.8725  0.000000  0.000000  0.000000  -37.47605861130712  -1.4929939767229974  -10.332672310413926  49.57469925657654  11.214612496703802  8.417009130916624  -17.870477572959725  11.532439756666756  20.283191554013076  14.005406711129543  120.000000
2.92995  0.000000  0.000000  0.000000  -37.1859516920168  -1.5487289845819723  -9.9339815203048  50.05154026252029  10.998353966876287  8.426968798477732  -18.39896675097195  10.3205709152115  23.153728044913983  14.375222712101214  120.000000
2.9874  0.000000  0.000000  0.000000  -37.080205108155866  -1.5089065429877029  -9.477956056240782  50.45190848539894  10.76564565197525  8.407487297236294  -17.898278200250356  9.204657309730047  24.69649163440025  14.83053082620469  120.000000
3.0448500000000003  0.000000  0.000000  0.000000  -37.116860739226226  -1.393029619268013  -8.99414314190319  50.73871497877627  10.539773335931796  8.340868259346681  -16.385626961658907  8.180587053321014  24.883884603466463  15.324547490776245  120.000000
3.1023  0.000000  0.000000  0.000000  -37.24811198027606  -1.2231217260503493  -8.50437926905888  50.899000102801104  10.343288370921961  8.216709962453965  -13.949579048487388  7.263603862549783  23.806770926021755  15.813380841338361  120.000000
3.15975  0.000000  0.000000  0.000000  -37.43094383066985  -1.0211310200073351  -8.02509011379581  50.942353175847686  10.193675073840694  8.033750508441269  -10.710045434514159  6.474513795228231  21.621240872569835  16.26708688927829  120.000000
3.2172  0.000000  0.000000  0.000000  -37.63090450367005  -0.8093376166691117  -7.569896065507323  50.893992986526435  10.099543830438273  7.801127696015617  -6.819692708077121  5.827728519014638  18.53807668397463  16.676343456593788  120.000000
3.2746500000000003  0.000000  0.000000  0.000000  -37.82067985062533  -0.6094257527730741  -7.151122685853494  50.785119888615846  10.05940011014361  7.5374703837223445  -2.495527118718468  5.324698233821096  14.842759911347509  17.04932051423956  120.000000
3.3321  0.000000  0.000000  0.000000  -37.97966365484117  -0.44037666493499383  -6.78049321542115  50.64570540071086  10.06402257281461  7.26670369880525  1.9943884408843195  4.953776895918248  10.870393206571249  17.402443216297534  120.000000
3.38955  0.000000  0.000000  0.000000  -38.093338992778186  -0.31403562227666776  -6.469172458163782  50.50337377221254  10.100075537453062  7.011432857215718  6.423462242318229  4.695065148131853  6.902795152989144  17.751857550361247  120.000000
3.447  0.000000  0.000000  0.000000  -38.15694700108027  -0.2356351401337678  -6.225935538218334  50.37732510760655  10.154516049712466  6.7900344918476225  10.655137761510332  4.5280779683432755  3.112130098282875  18.10755275261041  120.000000
3.5044500000000003  0.000000  0.000000  0.000000  -38.177253217378144  -0.20452708907396414  -6.056444939808526  50.27332279040594  10.218316485260951  6.616177496257688  14.606506752670553  4.4368182848759075  -0.4033234766450054  18.47186864318152  120.000000
3.5619  0.000000  0.000000  0.000000  -38.16655151788505  -0.2119494752312954  -5.965174187513546  50.18972005285949  10.288238505632242  6.495952776974296  18.229783778313905  4.412228097492776  -3.5946793333905243  18.84270921538765  120.000000
3.61935  0.000000  0.000000  0.000000  -38.13650326126992  -0.2428872908843696  -5.956236784761375  50.12168023397639  10.36560778533723  6.428706873052004  21.48438562099486  4.451566792856466  -6.426505187459044  19.216884412174487  120.000000
3.6768  0.000000  0.000000  0.000000  -38.095850339439544  -0.2834413621897691  -6.032890127906054  50.0596673523385  10.452908733967094  6.411819904577304  24.306375099477957  4.554454141411866  -8.840222306815585  19.59193212823384  120.000000
3.7342500000000003  0.000000  0.000000  0.000000  -38.0479179159503  -0.325624231298278  -6.197724918284708  49.99046048082456  10.550528006776052  6.444008536272874  26.62603707452033  4.71954044740964  -10.768147815069245  19.96678305087669  120.000000
3.7917  0.000000  0.000000  0.000000  -37.99037395294956  -0.36718942676768146  -6.453207323048873  49.901622342009055  10.656355078927525  6.524499352769585  28.400255101182367  4.945474741589273  -12.16505430837863  20.342013576191913  120.000000
3.84915  0.000000  0.000000  0.000000  -37.91656388569415  -0.4095455601180124  -6.801305644268883  49.78448085719765  10.767330040522193  6.651614007022137  29.603494588640057  5.233487379669105  -12.999190934470564  20.718648477804024  120.000000
3.9066  0.000000  0.000000  0.000000  -37.81737353563934  -0.45626500788154295  -7.241916688835864  49.63483508095801  10.881631263991492  6.822582342211511  30.20346570627421  5.589579429206378  -13.228283881973722  21.096819160294174  120.000000
3.9640500000000003  0.000000  0.000000  0.000000  -37.683143545170225  -0.5124894047781029  -7.771631914391117  49.45240443997649  10.99984767834217  7.033962348429977  30.156866478355234  6.025571218955512  -12.796692456916848  21.474619668052767  120.000000
4.0215  0.000000  0.000000  0.000000  -37.506742149947506  -0.583775697870146  -8.384404547447538  49.24055385618723  11.124169708137936  7.281233295942557  29.449029080973176  6.559548797276983  -11.679625519950054  21.847912738850056  120.000000
4.07895  0.000000  0.000000  0.000000  -37.28685356402833  -0.6749953468627553  -9.073041726211853  49.00712189604248  11.256385367877105  7.558288899712656  28.160646326142622  7.216128316780631  -9.957597605454222  22.20955954613077  120.000000
4.1364  0.000000  0.000000  0.000000  -37.0314993580346  -0.7900317149869439  -9.829004619770124  48.76411649855868  11.395661785242197  7.859495637355097  26.511704416252837  8.024328990578786  -7.869821550376172  22.54753422600435  120.000000
4.19385  0.000000  0.000000  0.000000  -36.760347493606  -0.9314971884800199  -10.639779934512996  48.52714063516401  11.538686861547662  8.182351230236334  24.832129858886336  9.011759503189364  -5.791039377585473  22.84367554653631  120.000000
